HIERARCHY
ROOT root
{
	OFFSET	0	13.1	24.9
	CHANNELS 6  Xposition Yposition Zposition Xrotation Yrotation Zrotation
	JOINT spine_1
	{
		OFFSET	0	9.99999	0
		CHANNELS 3  Xrotation Yrotation Zrotation
		JOINT spine_2
		{
			OFFSET	0	112	-10
			CHANNELS 3  Xrotation Yrotation Zrotation
			JOINT spine_3
			{
				OFFSET	0	206.5	19.3
				CHANNELS 3  Xrotation Yrotation Zrotation
				JOINT spine_4
				{
					OFFSET	0	110.4	14.6
					CHANNELS 3  Xrotation Yrotation Zrotation
					JOINT neck_1
					{
						OFFSET	0	71.8	-50.3
						CHANNELS 3  Xrotation Yrotation Zrotation
						JOINT neck_2
						{
							OFFSET	0	86.2	-25.8
							CHANNELS 3  Xrotation Yrotation Zrotation
							JOINT head_ee
							{
								OFFSET	0	179.8	-8.7
								CHANNELS 3  Xrotation Yrotation Zrotation
								End Site
								{
									OFFSET	1	0	0
								}
							}
						}
					}
					JOINT left_clavicle
					{
						OFFSET	-43.2	22.4	-70.8
						CHANNELS 3  Xrotation Yrotation Zrotation
						JOINT left_shoulder
						{
							OFFSET	-93.9	-5.79999	48.7
							CHANNELS 3  Xrotation Yrotation Zrotation
							JOINT left_elbow
							{
								OFFSET	-291.4	-30.8	15.2
								CHANNELS 3  Xrotation Yrotation Zrotation
								JOINT left_lowarm_twist
								{
									OFFSET	-110.7	-3.89999	13.6
									CHANNELS 3  Xrotation Yrotation Zrotation
									JOINT left_hand
									{
										OFFSET	-110.7	-3.89999	13.6
										CHANNELS 3  Xrotation Yrotation Zrotation
										JOINT left_ee
										{
											OFFSET	-80.8	-5.10001	12.1
											CHANNELS 3  Xrotation Yrotation Zrotation
											End Site
											{
												OFFSET	1	0	0
											}
										}
									}
								}
							}
						}
					}
					JOINT right_clavicle
					{
						OFFSET	43.2	22.4	-70.8
						CHANNELS 3  Xrotation Yrotation Zrotation
						JOINT right_shoulder
						{
							OFFSET	93.9	-5.79999	48.7
							CHANNELS 3  Xrotation Yrotation Zrotation
							JOINT right_elbow
							{
								OFFSET	291.4	-30.8	15.2
								CHANNELS 3  Xrotation Yrotation Zrotation
								JOINT right_lowarm_twist
								{
									OFFSET	110.7	-3.89999	13.6
									CHANNELS 3  Xrotation Yrotation Zrotation
									JOINT right_hand
									{
										OFFSET	110.7	-3.89999	13.6
										CHANNELS 3  Xrotation Yrotation Zrotation
										JOINT right_ee
										{
											OFFSET	80.8	-5.10001	12.1
											CHANNELS 3  Xrotation Yrotation Zrotation
											End Site
											{
												OFFSET	1	0	0
											}
										}
									}
								}
							}
						}
					}
				}
			}
		}
	}
	JOINT left_hip
	{
		OFFSET	-82.8	-127.5	0.300001
		CHANNELS 3  Xrotation Yrotation Zrotation
		JOINT left_knee
		{
			OFFSET	-28.2	-396.7	2.2
			CHANNELS 3  Xrotation Yrotation Zrotation
			JOINT left_ankle
			{
				OFFSET	-11.7	-411.3	35.4
				CHANNELS 3  Xrotation Yrotation Zrotation
				JOINT left_toes
				{
					OFFSET	0	-60	-88.6
					CHANNELS 3  Xrotation Yrotation Zrotation
					JOINT left_foot_ee
					{
						OFFSET	-22.5	-16.5	-42.2
						CHANNELS 3  Xrotation Yrotation Zrotation
						End Site
						{
							OFFSET	1	0	0
						}
					}
				}
			}
		}
	}
	JOINT right_hip
	{
		OFFSET	82.8	-127.5	0.300001
		CHANNELS 3  Xrotation Yrotation Zrotation
		JOINT right_knee
		{
			OFFSET	28.2	-396.7	2.2
			CHANNELS 3  Xrotation Yrotation Zrotation
			JOINT right_ankle
			{
				OFFSET	11.7	-411.3	35.4
				CHANNELS 3  Xrotation Yrotation Zrotation
				JOINT right_toes
				{
					OFFSET	0	-60	-88.6
					CHANNELS 3  Xrotation Yrotation Zrotation
					JOINT right_foot_ee
					{
						OFFSET	22.5	-16.5	-42.2
						CHANNELS 3  Xrotation Yrotation Zrotation
						End Site
						{
							OFFSET	1	0	0
						}
					}
				}
			}
		}
	}
}
MOTION
Frames: 10
Frame Time: 0.02
1372.05 701.618 -1475.22 -23.7569519345 22.6021821995 12.2896757025 9.25467 -0.361512 -0.547067 9.25478 -0.325968 -0.568961 9.25773 -0.297037 -0.584586 9.25746 -0.385632 -0.53034 -15.1255 2.99971 0.811833 -15.1476 5.25808 1.76575 -0.0 0.0 -0.0 5.16514 -0.770164 9.9587 -0.685489 2.75564 63.4305 1.87203 -42.837 0.734394 57.6621 -1.57027 -6.88812 5.35391 10.5992 42.89 -0.0 0.0 -0.0 8.82123 -1.54741 -17.1905 -47.6672 29.5407 -60.6515 0.451687 12.6125 -0.0499169 -7.08162 0.302673 -0.852629 2.46817 13.131 -11.0922 0.0 0.0 0.0 9.62334 45.2442 0.573321 -13.1496 0.314347 1.98909 36.9193 -31.9236 -5.74387 14.1947 -0.0 -0.0 -0.0 0.0 -0.0 52.7235 25.3061 -12.7742 -1.53823 -0.0602735 -0.228362 29.0265 -9.07565 3.7877 13.7428 -0.0 -0.0 0.0 0.0 0.0 
1357.72067215 697.42 -1495.24898808 -23.7032264273 23.776472437 12.4604922961 9.06978 -0.286572 -0.518665 9.0699 -0.252988 -0.535848 9.07199 -0.224027 -0.548587 9.0717 -0.307853 -0.506323 -14.5067 2.60384 2.25886 -14.5026 3.61298 2.97765 -0.0 0.0 -0.0 4.79666 0.853006 9.29432 -1.74382 1.02388 64.2579 1.82554 -42.1196 0.702998 53.2779 -1.21334 -6.4545 4.9246 8.62789 38.4904 -0.0 0.0 -0.0 9.1154 -5.22807 -17.5838 -49.3867 29.8699 -60.1118 0.427545 11.9584 -0.0447799 -8.86021 0.395096 -1.06047 1.50682 10.5604 -5.6889 0.0 0.0 0.0 7.57743 42.8239 1.76094 -13.748 0.317719 2.08084 37.1326 -31.0287 -5.70048 20.3276 -0.0 -0.0 -0.0 0.0 -0.0 52.945 25.4692 -13.0983 -5.8002 -0.194984 -0.868426 30.1389 -8.29163 3.90568 19.4483 -0.0 -0.0 0.0 0.0 0.0 
1333.4929595 691.4 -1517.01937354 -23.2175310852 24.5925118932 11.2115532306 8.90613 -0.114212 -0.313589 8.90618 -0.0940257 -0.320221 8.9066 -0.0758572 -0.325005 8.90647 -0.126233 -0.308946 -13.585 1.98746 1.59761 -13.5833 2.79973 2.1301 -0.0 0.0 -0.0 4.57357 1.39977 8.88368 -3.17996 -0.280055 63.933 1.72658 -40.5367 0.637639 51.3035 -1.0637 -6.25066 4.23329 4.39328 31.3691 -0.0 0.0 -0.0 8.90508 -4.60207 -17.212 -47.0144 28.4577 -60.2679 0.40401 11.3176 -0.0400323 -9.59707 0.435274 -1.14573 1.1762 6.83152 -5.04656 0.0 0.0 0.0 7.62752 38.4486 1.4978 -17.0966 0.318904 2.59454 37.3833 -27.8396 -5.51251 26.9619 -0.0 -0.0 -0.0 0.0 -0.0 52.7028 25.9383 -13.2853 -9.56107 -0.274035 -1.44004 23.961 -7.80982 3.20993 30.8509 -0.0 -0.0 0.0 0.0 0.0 
1319.15403087 690.759 -1537.665238 -22.6137950589 26.0885556135 11.3608248662 8.54968 0.0105223 -0.163288 8.5497 0.0208914 -0.162287 8.54961 0.0309929 -0.160664 8.54958 0.00523002 -0.163543 -13.6987 0.96636 1.34291 -13.6943 1.01456 1.57552 -0.0 0.0 -0.0 4.16508 2.68753 8.1541 -5.0282 -3.40404 64.5573 1.65752 -39.3858 0.593282 48.4717 -0.861588 -5.94966 3.70217 -1.24272 25.0967 -0.0 0.0 -0.0 8.4752 -4.04249 -16.4028 -44.2321 27.5584 -61.5636 0.453827 12.6704 -0.0503853 -9.80081 0.446577 -1.16922 1.02027 3.04602 -5.57847 0.0 0.0 0.0 9.49067 32.9701 -0.0295409 -23.5847 0.235881 3.58608 38.0924 -24.767 -5.40542 35.3423 -0.0 -0.0 -0.0 0.0 -0.0 51.5445 26.4031 -13.158 -13.0395 -0.313621 -1.97221 18.5481 -9.95017 2.55195 40.2139 -0.0 -0.0 0.0 0.0 0.0 
1302.00685474 694.084 -1559.14353425 -21.7346815191 27.1943817114 11.1818221378 8.30031 0.157806 -0.0782867 8.3003 0.162468 -0.0680864 8.30013 0.166655 -0.0570744 8.30016 0.15555 -0.0826783 -14.1626 0.214434 0.588741 -14.1616 0.0511045 0.626413 -0.0 0.0 -0.0 4.25555 3.672 8.36236 -6.61021 -6.01313 65.7597 1.58081 -38.0612 0.545292 44.0198 -0.574691 -5.45753 2.9818 -4.59202 18.4621 -0.0 0.0 -0.0 8.6874 -5.10129 -16.7618 -42.2013 27.7831 -62.2235 0.403828 11.3126 -0.0399964 -10.1295 0.464986 -1.20702 0.835889 -0.522172 -5.80468 0.0 0.0 0.0 11.7161 27.1575 -0.983534 -31.4692 -0.0150044 4.76916 38.5675 -20.3333 -5.23655 40.3465 -0.0 -0.0 -0.0 0.0 -0.0 50.2627 26.3697 -13.5851 -15.4744 -0.32208 -2.34567 17.3212 -12.1785 2.40178 40.3041 -0.0 -0.0 0.0 0.0 0.0 
1303.74493622 694.084 -1560.56412728 -21.5170763054 26.1005835194 10.6966620731 8.30031 0.157806 -0.0782867 8.3003 0.162468 -0.0680864 8.30013 0.166655 -0.0570744 8.30016 0.15555 -0.0826783 -14.1626 0.214434 0.588741 -14.1616 0.0511045 0.626413 -0.0 0.0 -0.0 4.25555 3.672 8.36236 -6.61021 -6.01313 65.7597 1.58081 -38.0612 0.545292 44.0198 -0.574691 -5.45753 2.9818 -4.59202 18.4621 -0.0 0.0 -0.0 8.6874 -5.10129 -16.7618 -42.2013 27.7831 -62.2235 0.403828 11.3126 -0.0399964 -10.1295 0.464986 -1.20702 0.835889 -0.522172 -5.80468 0.0 0.0 0.0 11.7161 27.1575 -0.983534 -31.4692 -0.0150044 4.76916 38.5675 -20.3333 -5.23655 40.3465 -0.0 -0.0 -0.0 0.0 -0.0 50.2627 26.3697 -13.5851 -15.4744 -0.32208 -2.34567 17.3212 -12.1785 2.40178 40.3041 -0.0 -0.0 0.0 0.0 0.0 
1266.00786026 704.907 -1588.9259928 -20.176665165 27.3580689762 9.46351904698 7.93382 0.0167829 0.0593052 7.93382 0.0129751 0.060253 7.93383 0.00852871 0.0610413 7.93383 0.018062 0.0589283 -16.663 0.299833 -2.00702 -16.6549 1.71127 -1.77495 -0.0 0.0 -0.0 4.43015 5.45212 8.74447 -9.82014 -8.30955 67.0662 1.25245 -31.8152 0.356962 36.2739 -0.169775 -4.55418 1.77186 -13.8014 6.05667 -0.0 0.0 -0.0 8.45725 -4.53096 -16.3454 -39.9798 28.4166 -59.6174 0.600935 16.5776 -0.0875479 -9.81676 0.447466 -1.17106 0.582775 -7.37657 -6.87388 0.0 0.0 0.0 17.8411 17.1536 -0.0369898 -46.414 -0.924395 6.87174 38.6838 -12.7243 -4.97987 40.1472 -0.0 -0.0 -0.0 0.0 -0.0 45.2839 24.8801 -11.2563 -17.9672 -0.314294 -2.72804 23.3259 -8.14812 3.13519 34.9123 -0.0 -0.0 0.0 0.0 0.0 
1245.57080477 705.881 -1607.71946858 -18.9740102328 27.3495746329 8.35664357029 7.75573 0.0325422 0.269088 7.75577 0.0153536 0.270613 7.75578 -0.00534361 0.270996 7.75568 0.037522 0.268439 -17.6397 0.275697 -2.9305 -17.6212 2.13938 -2.63592 -0.0 0.0 -0.0 4.55314 6.16802 8.98895 -11.1339 -8.84449 67.7714 1.12018 -29.0253 0.289972 33.6095 -0.0592427 -4.23205 1.41278 -16.8085 2.30166 -0.0 0.0 -0.0 8.47256 -4.6668 -16.3685 -39.0565 28.8254 -59.3414 0.691074 18.8981 -0.115016 -9.82227 0.447772 -1.17169 0.416994 -9.77728 -6.73958 0.0 0.0 0.0 20.0429 13.3682 0.707361 -52.0535 -1.40568 7.5941 38.858 -9.75401 -4.92082 40.0444 -0.0 -0.0 -0.0 0.0 -0.0 43.8476 24.4803 -10.6583 -20.1105 -0.294309 -3.05627 25.9214 -6.63507 3.43676 33.2185 -0.0 -0.0 0.0 0.0 0.0 
1250.83087418 705.881 -1612.54814546 -18.6184024671 25.2350663418 7.55397571447 7.75573 0.0325422 0.269088 7.75577 0.0153536 0.270613 7.75578 -0.00534361 0.270996 7.75568 0.037522 0.268439 -17.6397 0.275697 -2.9305 -17.6212 2.13938 -2.63592 -0.0 0.0 -0.0 4.55314 6.16802 8.98895 -11.1339 -8.84449 67.7714 1.12018 -29.0253 0.289972 33.6095 -0.0592427 -4.23205 1.41278 -16.8085 2.30166 -0.0 0.0 -0.0 8.47256 -4.6668 -16.3685 -39.0565 28.8254 -59.3414 0.691074 18.8981 -0.115016 -9.82227 0.447772 -1.17169 0.416994 -9.77728 -6.73958 0.0 0.0 0.0 20.0429 13.3682 0.707361 -52.0535 -1.40568 7.5941 38.858 -9.75401 -4.92082 40.0444 -0.0 -0.0 -0.0 0.0 -0.0 43.8476 24.4803 -10.6583 -20.1105 -0.294309 -3.05627 25.9214 -6.63507 3.43676 33.2185 -0.0 -0.0 0.0 0.0 0.0 
1246.38849814 708.291 -1630.46676792 -18.9695136212 25.0166372449 7.5234767344 7.81856 0.0640777 0.504979 7.8187 0.0318151 0.508033 7.81875 -0.00648964 0.508987 7.8184 0.0739758 0.503624 -18.3122 -0.352674 -3.42938 -18.281 1.16487 -3.33554 -0.0 0.0 -0.0 4.25136 8.02237 8.48858 -12.4934 -10.768 68.2565 0.919713 -24.4936 0.19964 29.653 0.0769504 -3.74519 1.15719 -19.3695 -0.540403 -0.0 0.0 -0.0 8.83795 -4.53703 -17.0848 -37.433 28.8373 -59.6563 0.765494 20.7668 -0.140267 -8.50148 0.375935 -1.01878 0.302248 -11.4255 -6.64776 0.0 0.0 0.0 23.6149 10.4059 1.18495 -55.3461 -1.71896 7.99313 37.2237 -8.08164 -4.737 39.3037 -0.0 -0.0 -0.0 0.0 -0.0 41.7015 23.318 -9.77532 -21.9442 -0.267475 -3.33634 28.4976 -6.18774 3.72534 32.4298 -0.0 -0.0 0.0 0.0 0.0 
